<svg xmlns="http://www.w3.org/2000/svg" xmlns:xlink="http://www.w3.org/1999/xlink" id="Capa_1" width="612" height="612" x="0" style="enable-background:new 0 0 612 612" y="0" version="1.1" viewBox="0 0 612 612" xml:space="preserve"><g><g id="Add"><g><path d="M401.625,267.75H344.25v-57.375c0-21.114-17.136-38.25-38.25-38.25s-38.25,17.117-38.25,38.25v57.375h-57.375 c-21.114,0-38.25,17.117-38.25,38.25c0,21.114,17.136,38.25,38.25,38.25h57.375v57.375c0,21.114,17.136,38.25,38.25,38.25 s38.25-17.117,38.25-38.25V344.25h57.375c21.114,0,38.25-17.136,38.25-38.25S422.739,267.75,401.625,267.75z M306,0 C136.992,0,0,136.992,0,306s136.992,306,306,306s306-136.992,306-306S475.008,0,306,0z M306,554.625 C168.912,554.625,57.375,443.088,57.375,306S168.912,57.375,306,57.375S554.625,168.912,554.625,306S443.088,554.625,306,554.625 z"/></g></g></g></svg>